<?xml version="1.0" encoding="utf-8"?>
<!-- Generator: Adobe Illustrator 27.6.1, SVG Export Plug-In . SVG Version: 6.00 Build 0)  -->
<svg version="1.1" id="Camada_1" xmlns="http://www.w3.org/2000/svg" xmlns:xlink="http://www.w3.org/1999/xlink" x="0px" y="0px"
	 viewBox="0 0 707 309" style="enable-background:new 0 0 707 309;" xml:space="preserve">
<style type="text/css">
	.st0{fill:#FFFFFF;}
</style>
<g>
	<g>
		<g>
			<path class="st0" d="M24,56.3c1.8-0.4,3.5-0.7,5.3-0.9s3.7-0.3,5.9-0.3s4.1,0.1,5.7,0.3c1.6,0.2,3.4,0.5,5.1,0.9
				c0.4,0.6,0.7,1.6,1,2.8s0.6,2.5,0.9,3.8c0.3,1.3,0.5,2.6,0.7,3.9c0.2,1.3,0.3,2.3,0.5,3.2c1.3-1.9,2.8-3.8,4.6-5.7
				c1.8-1.9,3.8-3.6,6.2-5.1c2.3-1.5,5-2.8,7.9-3.7c2.9-1,6.1-1.4,9.7-1.4c11.2,0,19.6,3,25.2,9.1s8.5,15.7,8.5,28.7v62.8
				c-4.6,0.8-9.1,1.1-13.5,1.1s-8.9-0.4-13.5-1.1V99.1c0-6.8-1-12.1-3.1-15.8c-2.1-3.7-5.7-5.5-10.9-5.5c-2.2,0-4.4,0.3-6.7,1
				c-2.3,0.6-4.3,1.9-6.2,3.7c-1.8,1.8-3.3,4.4-4.5,7.7c-1.1,3.3-1.7,7.6-1.7,12.9v51.5c-4.6,0.8-9.1,1.1-13.5,1.1
				s-8.9-0.4-13.5-1.1L24,56.3L24,56.3z"/>
			<path class="st0" d="M157.1,113.7c0.5,7.6,3.2,13.1,8,16.5c4.8,3.4,11.2,5.1,19,5.1c4.3,0,8.7-0.4,13.2-1.2s8.8-2,12.8-3.5
				c1.4,2.5,2.6,5.6,3.6,9.1c1,3.6,1.6,7.4,1.7,11.4c-9.9,3.8-21,5.7-33.5,5.7c-9.1,0-17-1.3-23.5-3.8s-11.9-6.1-16-10.6
				s-7.2-9.9-9.1-16.1c-2-6.2-2.9-13-2.9-20.3c0-7.2,1-14,3-20.3s5-11.9,9-16.5c4-4.7,8.9-8.4,14.8-11.1c5.9-2.7,12.8-4.1,20.6-4.1
				c6.8,0,12.9,1.2,18.3,3.6c5.3,2.4,9.9,5.7,13.6,9.9c3.7,4.2,6.6,9.2,8.5,14.9c1.9,5.8,2.9,12,2.9,18.5c0,2.4-0.1,4.8-0.3,7.1
				c-0.2,2.3-0.4,4.2-0.7,5.6L157.1,113.7L157.1,113.7z M195.7,94.9c-0.3-6.1-1.9-11-5-14.7s-7.4-5.6-13-5.6
				c-6.3,0-11.2,1.8-14.5,5.3c-3.3,3.6-5.3,8.6-5.9,15C157.3,94.9,195.7,94.9,195.7,94.9z"/>
			<path class="st0" d="M297.7,138.3c11.5,0.3,20,2.8,25.5,7.7c5.4,4.9,8.2,11.8,8.2,20.8c0,5.3-1.4,10.2-4.2,14.5
				c-2.8,4.4-6.6,8.1-11.4,11.1s-10.5,5.4-17.1,7s-13.7,2.5-21.3,2.5c-7.6,0-14.1-0.6-19.4-1.8c-5.3-1.2-9.7-2.9-13-5
				c-3.4-2.2-5.8-4.8-7.2-8c-1.5-3.2-2.2-6.7-2.2-10.5c0-5.7,1.4-10.4,4.1-14.1c2.7-3.7,6.4-6.9,10.9-9.7c-2.9-1.8-5.2-4-6.9-6.6
				s-2.6-5.9-2.6-10c0-4.8,1-8.7,3-11.8c2-3,5-6,8.9-8.7c-4.4-3.2-7.9-7-10.3-11.6c-2.4-4.6-3.6-9.6-3.6-15.2c0-4.9,1-9.5,2.9-13.8
				c1.9-4.2,4.7-7.9,8.3-11s8-5.5,13.2-7.3s11-2.7,17.5-2.7c6.3,0,12.2,1,17.5,2.9c5.3,2,9.8,4.5,13.3,7.5c2.4-3.2,5.4-5.5,8.9-7.1
				s8.4-2.4,14.5-2.4c0.3,1.6,0.5,3.3,0.7,4.8c0.2,1.6,0.3,3.3,0.3,5c0,2-0.1,4.1-0.2,6.1s-0.4,4.1-0.8,6.3h-15.4
				c0.6,1.3,1.2,2.8,1.7,4.6c0.5,1.8,0.8,4.1,0.8,7c0,4.9-0.9,9.5-2.8,13.8c-1.8,4.2-4.5,7.9-8.1,10.9s-7.9,5.5-13,7.2
				c-5.1,1.8-10.9,2.7-17.4,2.7c-5.5,0-10.3-0.6-14.6-1.7c-2.2,1.4-3.5,2.9-4,4.5s-0.8,3.1-0.8,4.5c0,2,0.7,3.7,2,4.9
				c1.3,1.3,4,2,8.1,2.1L297.7,138.3z M273.3,158c-2.8-0.1-5.1,0.2-6.9,1s-3.3,1.7-4.4,2.9s-1.8,2.5-2.3,4c-0.4,1.5-0.7,2.9-0.7,4.3
				c0,4.8,1.8,8.1,5.4,9.8s8.5,2.6,14.5,2.6c8,0,14.4-1.3,19.3-3.8s7.3-6,7.3-10.3c0-1.3-0.2-2.5-0.5-3.6s-0.9-2.2-1.8-3.1
				c-0.9-1-2.1-1.7-3.7-2.4c-1.6-0.6-3.7-1-6.4-1L273.3,158z M281.1,106.1c5.3,0,9.2-1.5,11.5-4.6c2.3-3,3.5-7.2,3.5-12.6
				s-1.2-9.5-3.5-12.6s-6.2-4.7-11.5-4.7c-5.5,0-9.4,1.6-11.8,4.7s-3.6,7.3-3.6,12.6s1.2,9.5,3.6,12.6
				C271.8,104.6,275.7,106.1,281.1,106.1z"/>
			<path class="st0" d="M389.9,156.9c-8,0-14.9-1.3-20.8-3.9c-5.9-2.6-10.8-6.2-14.6-10.8c-3.9-4.6-6.8-10-8.7-16.3
				c-2-6.2-2.9-12.9-2.9-20.2c0-7.2,1-14,2.9-20.3c2-6.3,4.9-11.8,8.7-16.4c3.9-4.6,8.7-8.3,14.6-10.9c5.9-2.7,12.8-4,20.8-4
				s15,1.3,20.9,4c6,2.7,10.9,6.3,14.8,10.9s6.8,10.1,8.7,16.4c1.9,6.3,2.9,13.1,2.9,20.3c0,7.2-1,13.9-2.9,20.2
				c-1.9,6.2-4.8,11.6-8.7,16.3c-3.9,4.6-8.9,8.2-14.8,10.8S397.9,156.9,389.9,156.9z M389.9,136.4c7.1,0,12.2-2.6,15.3-7.9
				c3.1-5.3,4.7-12.8,4.7-22.7s-1.6-17.5-4.7-22.7c-3.1-5.3-8.2-7.9-15.3-7.9c-7,0-12,2.6-15.1,7.9s-4.7,12.8-4.7,22.7
				s1.6,17.5,4.7,22.7S382.9,136.4,389.9,136.4z"/>
			<path class="st0" d="M524.5,131.4c1.5,2.5,2.8,5.5,3.8,8.8c1,3.4,1.5,7.3,1.5,11.9c-5.1,2-9.8,3.3-14.3,3.9
				c-4.4,0.6-9.1,0.9-13.9,0.9c-8.2,0-15.4-1.3-21.5-3.9c-6.1-2.6-11.1-6.2-15.1-10.7c-4-4.6-7-10-9-16.3s-3-13.1-3-20.4
				c0-7.2,1-13.9,2.9-20.2c2-6.2,4.9-11.7,8.9-16.4c4-4.7,9-8.4,14.9-11c6-2.7,12.9-4,20.7-4c2.8,0,5.4,0.1,7.7,0.2
				c2.3,0.1,4.6,0.4,6.8,0.8c2.2,0.4,4.3,0.9,6.5,1.5s4.6,1.5,7.2,2.5c0,2.9-0.4,6.2-1.1,9.8c-0.8,3.6-2,7.1-3.6,10.4
				c-3.8-1.3-7.1-2.1-10-2.6c-2.9-0.4-6.1-0.7-9.8-0.7c-7.9,0-13.8,2.6-17.8,7.7s-6,12.5-6,22c0,10.3,2.2,17.8,6.5,22.4
				c4.3,4.7,10.1,7,17.5,7c1.9,0,3.6,0,5.2-0.1s3.1-0.2,4.7-0.5c1.5-0.3,3.1-0.6,4.7-1.1C520.5,132.8,522.4,132.2,524.5,131.4z"/>
			<path class="st0" d="M554.2,76.8h-12.7c-0.4-1.6-0.7-3.4-0.9-5.2c-0.2-1.8-0.3-3.6-0.3-5.2c0-3.4,0.4-6.8,1.1-10.1h39.2v98.3
				c-4.6,0.8-9,1.1-13.3,1.1c-4.2,0-8.6-0.4-13.1-1.1V76.8z M550.2,39.7c-0.8-4.3-1.1-8.6-1.1-12.7s0.4-8.3,1.1-12.7
				c2.2-0.4,4.5-0.7,6.9-0.9c2.5-0.2,4.7-0.3,6.8-0.3c2.2,0,4.5,0.1,7,0.3s4.9,0.5,7,0.9c0.4,2.2,0.6,4.3,0.8,6.4
				c0.1,2.1,0.2,4.2,0.2,6.4c0,2-0.1,4.1-0.2,6.3c-0.1,2.2-0.4,4.3-0.8,6.5c-2.2,0.4-4.5,0.6-6.9,0.8c-2.5,0.1-4.8,0.2-6.9,0.2
				c-2,0-4.3-0.1-6.8-0.2C554.7,40.4,552.4,40.1,550.2,39.7z"/>
			<path class="st0" d="M656.3,89.9c0-3-0.5-5.5-1.5-7.4s-2.4-3.4-4.2-4.5s-4-1.8-6.6-2.2c-2.6-0.4-5.5-0.6-8.7-0.6
				c-6.8,0-14.1,1.3-21.9,4c-1.8-3.3-3.1-6.4-4-9.3s-1.3-6.4-1.3-10.5c5.6-1.9,11.2-3.3,16.7-4.2c5.6-0.9,10.8-1.3,15.6-1.3
				c13.2,0,23.5,3.2,30.9,9.5s11.1,16.5,11.1,30.4V151c-4.4,1.4-9.8,2.7-16.2,4c-6.3,1.3-13.5,1.9-21.5,1.9
				c-6.5,0-12.4-0.6-17.8-1.7c-5.4-1.1-10-3-13.9-5.7s-6.8-6.1-8.9-10.3c-2.1-4.2-3.1-9.3-3.1-15.4s1.3-11.2,3.9-15.3
				c2.6-4.1,6-7.4,10.1-9.9s8.7-4.2,13.8-5.3c5.1-1.1,10.1-1.6,15.2-1.6c3.7,0,7.7,0.2,12.2,0.6v-2.4L656.3,89.9L656.3,89.9z
				 M656.3,109.5c-1.5-0.3-3.2-0.5-4.9-0.7c-1.8-0.2-3.4-0.3-4.8-0.3c-6.2,0-11.1,1.1-14.7,3.3c-3.6,2.2-5.4,5.8-5.4,10.7
				c0,3.3,0.7,5.8,2.1,7.6c1.4,1.8,3.1,3.1,5,3.9c2,0.8,4.1,1.3,6.3,1.5s4.2,0.3,5.8,0.3c1.9,0,3.8-0.2,5.7-0.5s3.5-0.6,4.9-0.9
				L656.3,109.5L656.3,109.5z"/>
		</g>
		<g>
			<path class="st0" d="M396,265.6c1.1,1.9,2.1,4.1,2.8,6.6c0.8,2.5,1.1,5.4,1.1,8.8c-3.8,1.5-7.3,2.5-10.6,2.9
				c-3.3,0.4-6.7,0.6-10.3,0.6c-6.1,0-11.5-1-16-2.9s-8.3-4.6-11.2-8c-3-3.4-5.2-7.4-6.7-12.1s-2.3-9.7-2.3-15.2
				c0-5.4,0.7-10.4,2.2-15s3.7-8.7,6.6-12.2c3-3.5,6.7-6.2,11.1-8.2s9.6-3,15.4-3c2.1,0,4,0,5.7,0.1s3.4,0.3,5,0.6s3.2,0.7,4.8,1.1
				c1.6,0.5,3.4,1.1,5.4,1.8c0,2.2-0.3,4.6-0.8,7.3c-0.6,2.7-1.5,5.3-2.7,7.7c-2.8-0.9-5.3-1.6-7.4-1.9c-2.1-0.3-4.6-0.5-7.3-0.5
				c-5.8,0-10.3,1.9-13.2,5.7c-3,3.8-4.5,9.3-4.5,16.3c0,7.6,1.6,13.2,4.8,16.7c3.2,3.5,7.5,5.2,13,5.2c1.4,0,2.7,0,3.9-0.1
				c1.2,0,2.3-0.2,3.5-0.4c1.1-0.2,2.3-0.5,3.5-0.8C393,266.7,394.4,266.2,396,265.6z"/>
			<path class="st0" d="M413.6,179.5c3.4-0.6,6.7-0.8,10-0.8c3.2,0,6.5,0.3,9.9,0.8v74.3c0,2.9,0.2,5.3,0.5,7.1s0.8,3.2,1.6,4.2
				c0.7,1,1.6,1.7,2.8,2.1c1.1,0.4,2.5,0.6,4.2,0.6c0.8,0,1.6,0,2.5-0.1s1.8-0.2,2.6-0.4c1,3.9,1.6,7.6,1.6,11.3c0,0.8,0,1.4,0,2.1
				c0,0.6-0.1,1.3-0.3,2.1c-1.5,0.5-3.3,0.8-5.4,1s-4.1,0.3-5.9,0.3c-7.3,0-13.1-2-17.5-6s-6.6-10.5-6.6-19.6L413.6,179.5
				L413.6,179.5z"/>
			<path class="st0" d="M490.9,284.6c-5.9,0-11.1-1-15.5-2.9s-8-4.6-10.9-8.1c-2.9-3.4-5-7.5-6.5-12.1s-2.2-9.6-2.2-15
				s0.7-10.4,2.2-15.1c1.5-4.7,3.6-8.8,6.5-12.2s6.5-6.2,10.9-8.1c4.4-2,9.5-3,15.5-3s11.1,1,15.6,3c4.4,2,8.1,4.7,11,8.1
				c2.9,3.4,5.1,7.5,6.5,12.2s2.1,9.8,2.1,15.1c0,5.4-0.7,10.4-2.1,15c-1.4,4.6-3.6,8.7-6.5,12.1s-6.6,6.1-11,8.1
				C502.1,283.6,496.9,284.6,490.9,284.6z M490.9,269.3c5.3,0,9.1-2,11.4-5.9s3.5-9.5,3.5-16.9s-1.2-13-3.5-16.9s-6.1-5.9-11.4-5.9
				c-5.2,0-8.9,2-11.2,5.9c-2.3,3.9-3.5,9.5-3.5,16.9s1.2,13,3.5,16.9C482,267.4,485.7,269.3,490.9,269.3z"/>
			<path class="st0" d="M540.7,209.8c3.4-0.6,6.7-0.8,10-0.8s6.6,0.3,10,0.8v38.8c0,3.9,0.3,7.1,0.9,9.5c0.6,2.5,1.6,4.5,2.8,5.9
				c1.3,1.5,2.9,2.5,4.7,3.1c1.9,0.6,4.1,0.9,6.6,0.9c3.5,0,6.4-0.3,8.8-1v-57.3c3.4-0.6,6.7-0.8,9.9-0.8c3.3,0,6.6,0.3,10,0.8V280
				c-3,1-7,2.1-12,3c-5,1-10.1,1.5-15.5,1.5c-4.8,0-9.4-0.4-13.9-1.1c-4.4-0.8-8.3-2.4-11.7-4.8c-3.3-2.5-6-6-8-10.8
				c-2-4.7-3-11-3-18.8v-39.2L540.7,209.8L540.7,209.8z"/>
			<path class="st0" d="M666.8,179.5c1.7-0.3,3.4-0.5,5-0.6s3.3-0.1,4.9-0.1c1.6,0,3.3,0,5,0.1s3.4,0.3,5.1,0.6v101
				c-4.4,1.3-8.9,2.3-13.5,3s-10.1,1.1-16.6,1.1c-5,0-9.8-0.7-14.4-2.1c-4.6-1.4-8.6-3.5-12.1-6.5s-6.2-6.8-8.3-11.5
				c-2-4.7-3-10.5-3-17.3c0-5.4,0.9-10.4,2.6-15.2c1.7-4.8,4.2-8.9,7.5-12.4s7.2-6.2,11.8-8.3c4.6-2,9.8-3,15.4-3
				c1.7,0,3.5,0.1,5.3,0.2c1.8,0.1,3.6,0.4,5.3,0.9V179.5z M666.8,224.9c-1.9-0.5-3.4-0.8-4.6-0.9c-1.2-0.1-2.7-0.2-4.5-0.2
				c-3.1,0-5.8,0.6-8.1,1.9c-2.3,1.3-4.2,3-5.7,5.1s-2.6,4.6-3.3,7.5s-1.1,5.9-1.1,9c0,3.9,0.5,7.1,1.4,9.8c0.9,2.7,2.2,4.8,3.9,6.4
				c1.6,1.6,3.6,2.8,5.9,3.5c2.3,0.7,4.7,1.1,7.4,1.1c1.6,0,3.1-0.1,4.4-0.2c1.3-0.1,2.8-0.4,4.4-0.9v-42.1H666.8z"/>
		</g>
	</g>
</g>
</svg>
