<?xml version="1.0" encoding="utf-8"?>
<!-- Generator: Adobe Illustrator 27.6.1, SVG Export Plug-In . SVG Version: 6.00 Build 0)  -->
<svg version="1.1" id="Camada_1" xmlns="http://www.w3.org/2000/svg" xmlns:xlink="http://www.w3.org/1999/xlink" x="0px" y="0px"
	 viewBox="0 0 32 32" style="enable-background:new 0 0 32 32;" xml:space="preserve">
<style type="text/css">
	.st0{fill:#FFFFFF;}
</style>
<g>
	<path class="st0" d="M29.5,23.8c-0.1-0.2-0.2-0.3-0.4-0.5c-0.3-0.3-0.8-0.3-1.2-0.2l-2.3,0.5c0.2-0.8-0.3-1.7-1.2-1.9
		c-0.1,0-0.2,0-0.4,0h-2.8c-0.5,0-0.9,0.2-1.3,0.5l-1.3,1.3H17c-0.5,0-0.9,0.4-0.9,0.9v2.2c0,0.5,0.4,0.9,0.9,0.9h6h0.1l3.6-0.9
		c0,0,0,0,0.1,0l2.2-0.9C29.6,25.3,29.9,24.5,29.5,23.8z M18.6,26.6h-1.3v-2.2h1.3V26.6z M28.5,24.8l-2.1,0.9L23,26.6h-3.5v-2.5
		l1.3-1.3c0.2-0.2,0.4-0.3,0.6-0.3h2.8c0.4,0,0.7,0.3,0.7,0.7c0,0.4-0.3,0.7-0.7,0.7h-1.6c-0.2,0-0.4,0.2-0.4,0.4s0.2,0.4,0.4,0.4
		h1.8h0.1l3.7-0.9c0.3-0.1,0.5,0.1,0.6,0.3C28.8,24.5,28.7,24.7,28.5,24.8z"/>
	<path class="st0" d="M27.4,18.2c-0.4-1-1.5-1.6-2.5-1.3c-1,0.4-1.6,1.5-1.3,2.5c0.3,0.8,1,1.4,1.9,1.4c0.1,0,0.2,0,0.3,0
		c0.4,1,1.5,1.6,2.5,1.3c1-0.3,1.6-1.5,1.3-2.5C29.3,18.6,28.3,18,27.4,18.2z M25.7,19.9c-0.1,0-0.2,0-0.2,0c-0.6,0-1.1-0.5-1.1-1.1
		s0.5-1.1,1.1-1.1c0.5,0,0.9,0.3,1.1,0.8C26.1,18.8,25.8,19.3,25.7,19.9z M28.8,20.2c0,0.6-0.5,1.1-1.1,1.1s-1.1-0.5-1.1-1.1
		s0.5-1.1,1.1-1.1S28.8,19.5,28.8,20.2z"/>
	<path class="st0" d="M5,7.5h6.7c0.1,0,0.2,0,0.3,0.1l3.5,2.6c0.3,0.2,0.6,0.3,0.9,0.3H27c0.3,0,0.5,0.2,0.5,0.5v4.3h1V11
		c0-0.8-0.7-1.5-1.5-1.5H16.3c-0.1,0-0.2,0-0.3-0.1l-3.5-2.6c-0.3-0.2-0.6-0.3-0.9-0.3H5C4.2,6.5,3.5,7.2,3.5,8v17
		c0,0.8,0.7,1.5,1.5,1.5h8.4v-0.1v-0.9H5c-0.3,0-0.5-0.2-0.5-0.5V8C4.5,7.7,4.7,7.5,5,7.5z"/>
</g>
</svg>
