<?xml version="1.0" encoding="utf-8"?>
<!-- Generator: Adobe Illustrator 27.6.1, SVG Export Plug-In . SVG Version: 6.00 Build 0)  -->
<svg version="1.1" id="Camada_1" xmlns="http://www.w3.org/2000/svg" xmlns:xlink="http://www.w3.org/1999/xlink" x="0px" y="0px"
	 viewBox="0 0 32 32" style="enable-background:new 0 0 32 32;" xml:space="preserve">
<style type="text/css">
	.st0{fill:#FFFFFF;}
</style>
<g>
	<path class="st0" d="M29.4,26.4c-0.6-1-1.5-1.7-2.6-2.1c1.4-0.8,1.9-2.5,1.3-4c-0.7-1.7-2.7-2.6-4.4-1.9c-0.2,0.1-0.3,0.4-0.2,0.6
		s0.4,0.3,0.6,0.2c0.3-0.1,0.6-0.2,0.9-0.2c1.4,0,2.5,1.1,2.5,2.5S26.4,24,25,24c-0.2,0-0.4,0.2-0.4,0.4c0,0.2,0.2,0.4,0.4,0.4
		c1.6,0,3,0.7,3.8,2c0.1,0.2,0.4,0.2,0.6,0.1C29.6,26.7,29.6,26.4,29.4,26.4z"/>
	<path class="st0" d="M21.9,24.1c1.5-1,2-3.1,0.9-4.7c-1-1.5-3.1-2-4.7-0.9c-1.5,1-2,3.1-0.9,4.7c0.2,0.4,0.6,0.7,0.9,0.9
		c-1.1,0.4-2,1.1-2.6,2.1c-0.1,0.2-0.1,0.5,0.1,0.6c0.2,0.1,0.5,0.1,0.6-0.1c1.3-2.1,4.1-2.7,6.2-1.3c0.5,0.3,1,0.8,1.3,1.3
		c0.1,0.2,0.4,0.3,0.6,0.1c0.2-0.1,0.3-0.4,0.1-0.6C23.9,25.3,23,24.5,21.9,24.1z M20.1,23.8c-1.4,0-2.5-1.1-2.5-2.5
		s1.1-2.5,2.5-2.5s2.5,1.1,2.5,2.5C22.6,22.7,21.5,23.8,20.1,23.8z"/>
	<path class="st0" d="M4.5,25V8c0-0.3,0.2-0.5,0.5-0.5h6.7c0.1,0,0.2,0,0.3,0.1l3.5,2.6c0.3,0.2,0.6,0.3,0.9,0.3H27
		c0.3,0,0.5,0.2,0.5,0.5v5.7h1V11c0-0.8-0.7-1.5-1.5-1.5H16.3c-0.1,0-0.2,0-0.3-0.1l-3.5-2.6c-0.3-0.2-0.6-0.3-0.9-0.3H5
		C4.2,6.5,3.5,7.2,3.5,8v17c0,0.8,0.7,1.5,1.5,1.5h8.5v-1H5C4.7,25.5,4.5,25.3,4.5,25z"/>
</g>
</svg>
