<?xml version="1.0" encoding="utf-8"?>
<!-- Generator: Adobe Illustrator 27.6.1, SVG Export Plug-In . SVG Version: 6.00 Build 0)  -->
<svg version="1.1" id="Camada_1" xmlns="http://www.w3.org/2000/svg" xmlns:xlink="http://www.w3.org/1999/xlink" x="0px" y="0px"
	 viewBox="0 0 32 32" style="enable-background:new 0 0 32 32;" xml:space="preserve">
<style type="text/css">
	.st0{fill:#FFFFFF;}
</style>
<g>
	<path class="st0" d="M29.5,24.5c-0.1-0.2-0.2-0.3-0.4-0.5c-0.3-0.3-0.8-0.3-1.2-0.2l-2.3,0.5c0.2-0.8-0.3-1.7-1.2-1.9
		c-0.1,0-0.2,0-0.4,0h-2.8c-0.5,0-0.9,0.2-1.3,0.5l-1.3,1.3H17c-0.5,0-0.9,0.4-0.9,0.9v2.2c0,0.5,0.4,0.9,0.9,0.9h6h0.1l3.6-0.9
		c0,0,0,0,0.1,0l2.2-0.9C29.6,26,29.9,25.2,29.5,24.5z M18.6,27.3h-1.3v-2.2h1.3V27.3z M28.5,25.5l-2.1,0.9L23,27.3h-3.5v-2.5
		l1.3-1.3c0.2-0.2,0.4-0.3,0.6-0.3h2.8c0.4,0,0.7,0.3,0.7,0.7c0,0.4-0.3,0.7-0.7,0.7h-1.6c-0.2,0-0.4,0.2-0.4,0.4s0.2,0.4,0.4,0.4
		h1.8h0.1l3.7-0.9c0.3-0.1,0.5,0.1,0.6,0.3C28.8,25.2,28.7,25.4,28.5,25.5z"/>
	<path class="st0" d="M27.4,18.9c-0.4-1-1.5-1.6-2.5-1.3c-1,0.4-1.6,1.5-1.3,2.5c0.3,0.8,1,1.4,1.9,1.4c0.1,0,0.2,0,0.3,0
		c0.4,1,1.5,1.6,2.5,1.3s1.6-1.5,1.3-2.5C29.3,19.3,28.3,18.7,27.4,18.9z M25.7,20.6c-0.1,0-0.2,0-0.2,0c-0.6,0-1.1-0.5-1.1-1.1
		s0.5-1.1,1.1-1.1c0.5,0,0.9,0.3,1.1,0.8C26.1,19.5,25.8,20,25.7,20.6z M28.8,20.9c0,0.6-0.5,1.1-1.1,1.1s-1.1-0.5-1.1-1.1
		s0.5-1.1,1.1-1.1S28.8,20.2,28.8,20.9z"/>
	<path class="st0" d="M4.9,16c0-6.1,5-11.1,11.1-11.1c5.9,0,10.7,4.6,11.1,10.4h1C27.7,8.9,22.4,3.9,16,3.9C9.3,3.9,3.9,9.3,3.9,16
		c0,5.8,4.1,10.7,9.7,11.9v-1C8.6,25.7,4.9,21.3,4.9,16z"/>
	<path class="st0" d="M16.5,20.3v-3.8h3.8c0.3,0,0.5-0.2,0.5-0.5s-0.2-0.5-0.5-0.5h-3.8v-3.8c0-0.3-0.2-0.5-0.5-0.5
		s-0.5,0.2-0.5,0.5v3.8h-3.8c-0.3,0-0.5,0.2-0.5,0.5c0,0.3,0.2,0.5,0.5,0.5h3.8v3.8c0,0.3,0.2,0.5,0.5,0.5
		C16.3,20.8,16.5,20.5,16.5,20.3z"/>
</g>
</svg>
