<?xml version="1.0" encoding="UTF-8"?><svg id="Speech_Bubble" xmlns="http://www.w3.org/2000/svg" viewBox="0 0 500 500"><defs><style>.cls-1{fill:#828282;}.cls-1,.cls-2,.cls-3,.cls-4,.cls-5,.cls-6{stroke-linecap:round;stroke-linejoin:round;}.cls-1,.cls-2,.cls-3,.cls-5,.cls-6{stroke:#263238;}.cls-2,.cls-7{fill:#263238;}.cls-3{fill:#fff;}.cls-4{stroke:#8c8c8c;}.cls-4,.cls-5,.cls-6{fill:none;}.cls-6{stroke-width:.25px;}.cls-7{stroke-width:0px;}</style></defs><line class="cls-5" x1="459.89" y1="397.36" x2="23.26" y2="397.36"/><line class="cls-5" x1="476.09" y1="397.36" x2="466.82" y2="397.36"/><line class="cls-5" x1="442.32" y1="183.2" x2="442.32" y2="192.07"/><line class="cls-5" x1="437.88" y1="187.64" x2="446.75" y2="187.64"/><line class="cls-5" x1="65.13" y1="206.05" x2="65.13" y2="214.92"/><line class="cls-5" x1="60.7" y1="210.48" x2="69.57" y2="210.48"/><line class="cls-5" x1="112.84" y1="103.7" x2="112.84" y2="112.57"/><line class="cls-5" x1="108.41" y1="108.14" x2="117.28" y2="108.14"/><line class="cls-5" x1="292.14" y1="52.15" x2="292.14" y2="61.02"/><line class="cls-5" x1="287.7" y1="56.58" x2="296.57" y2="56.58"/><line class="cls-5" x1="347.54" y1="372.63" x2="347.54" y2="381.5"/><line class="cls-5" x1="343.11" y1="377.06" x2="351.98" y2="377.06"/><line class="cls-5" x1="457.59" y1="308.4" x2="457.59" y2="317.27"/><line class="cls-5" x1="453.15" y1="312.83" x2="462.02" y2="312.83"/><circle class="cls-5" cx="150.96" cy="75.23" r="7.33" transform="translate(-13.22 36.57) rotate(-13.24)"/><circle class="cls-5" cx="170.15" cy="372.27" r="7.33" transform="translate(-80.74 48.86) rotate(-13.24)"/><circle class="cls-5" cx="460.29" cy="244.56" r="7.33" transform="translate(58.2 576.22) rotate(-67.5)"/><path class="cls-5" d="m110.29,150.23c0,.92.75,1.67,1.67,1.67s1.67-.75,1.67-1.67-.75-1.67-1.67-1.67-1.67.75-1.67,1.67Z"/><path class="cls-5" d="m372.81,75.36c0,.92.75,1.67,1.67,1.67s1.67-.75,1.67-1.67-.75-1.67-1.67-1.67-1.67.75-1.67,1.67Z"/><path class="cls-5" d="m236.73,368.42c0,.92.75,1.67,1.67,1.67s1.67-.75,1.67-1.67-.75-1.67-1.67-1.67-1.67.75-1.67,1.67Z"/><path class="cls-3" d="m250.82,372.92l3.33-26.78h53.9l3.33,26.78c.05.53.11,1.05.18,1.57,1.28,9.29,7.24,17.27,15.5,21.69l14.44,7.72h-120.81l14.44-7.72c8.27-4.42,14.22-12.41,15.5-21.69.07-.52.13-1.05.18-1.57Z"/><polygon class="cls-2" points="252.64 363.14 254.15 346.15 267.16 346.15 295.03 346.15 308.04 346.15 309.55 363.14 252.64 363.14"/><rect class="cls-3" x="220.86" y="403.91" width="120.64" height="3.17" transform="translate(562.36 811) rotate(180)"/><line class="cls-5" x1="306.77" y1="385.61" x2="262.81" y2="385.61"/><line class="cls-5" x1="251.48" y1="385.61" x2="256.92" y2="385.61"/><path class="cls-3" d="m143.69,117h274.8c4.39,0,7.95,3.56,7.95,7.95v216.43c0,5.63-4.57,10.2-10.2,10.2H145.94c-5.63,0-10.2-4.57-10.2-10.2V124.94c0-4.39,3.56-7.95,7.95-7.95Zm5.13,195.7h264.53V126.22H148.83v186.48Z"/><path class="cls-2" d="m204.03,138.69h182.02v10.72c0,3.54-2.87,6.41-6.41,6.41h-169.2c-3.54,0-6.41-2.87-6.41-6.41v-10.72h0Z" transform="translate(590.08 294.51) rotate(180)"/><path class="cls-3" d="m237.67,147.26c0,1.46,1.18,2.64,2.64,2.64s2.64-1.18,2.64-2.64-1.18-2.64-2.64-2.64-2.64,1.18-2.64,2.64Z"/><path class="cls-3" d="m227.11,147.26c0,1.46,1.18,2.64,2.64,2.64s2.64-1.18,2.64-2.64-1.18-2.64-2.64-2.64-2.64,1.18-2.64,2.64Z"/><path class="cls-3" d="m216.56,147.26c0,1.46,1.18,2.64,2.64,2.64s2.64-1.18,2.64-2.64-1.18-2.64-2.64-2.64-2.64,1.18-2.64,2.64Z"/><path class="cls-5" d="m210.38,138.69h169.33c3.5,0,6.35,2.84,6.35,6.35v141.57c0,3.54-2.87,6.41-6.41,6.41h-169.2c-3.54,0-6.41-2.87-6.41-6.41v-141.57c0-3.5,2.84-6.35,6.35-6.35Z" transform="translate(590.08 431.7) rotate(180)"/><line class="cls-6" x1="377.37" y1="151.93" x2="377.37" y2="293.55"/><line class="cls-6" x1="366.35" y1="151.93" x2="366.35" y2="293.55"/><line class="cls-6" x1="355.33" y1="151.93" x2="355.33" y2="293.55"/><line class="cls-6" x1="344.31" y1="151.93" x2="344.31" y2="293.55"/><line class="cls-6" x1="333.29" y1="151.93" x2="333.29" y2="293.55"/><line class="cls-6" x1="322.27" y1="151.93" x2="322.27" y2="293.55"/><line class="cls-6" x1="311.26" y1="151.93" x2="311.26" y2="293.55"/><line class="cls-6" x1="300.24" y1="151.93" x2="300.24" y2="293.55"/><line class="cls-6" x1="289.22" y1="151.93" x2="289.22" y2="293.55"/><line class="cls-6" x1="278.2" y1="151.93" x2="278.2" y2="293.55"/><line class="cls-6" x1="267.18" y1="151.93" x2="267.18" y2="293.55"/><line class="cls-6" x1="256.16" y1="151.93" x2="256.16" y2="293.55"/><line class="cls-6" x1="245.15" y1="151.93" x2="245.15" y2="293.55"/><line class="cls-6" x1="234.13" y1="151.93" x2="234.13" y2="293.55"/><line class="cls-6" x1="223.11" y1="151.93" x2="223.11" y2="293.55"/><line class="cls-6" x1="212.09" y1="151.93" x2="212.09" y2="293.55"/><line class="cls-6" x1="385.79" y1="166.22" x2="203.66" y2="166.22"/><line class="cls-6" x1="385.79" y1="179.57" x2="203.66" y2="179.57"/><line class="cls-6" x1="385.79" y1="192.93" x2="203.66" y2="192.93"/><line class="cls-6" x1="385.79" y1="206.29" x2="203.66" y2="206.29"/><line class="cls-6" x1="385.79" y1="219.64" x2="203.66" y2="219.64"/><line class="cls-6" x1="385.79" y1="233" x2="203.66" y2="233"/><line class="cls-6" x1="385.79" y1="246.35" x2="203.66" y2="246.35"/><line class="cls-6" x1="385.79" y1="259.71" x2="203.66" y2="259.71"/><line class="cls-6" x1="385.79" y1="273.07" x2="203.66" y2="273.07"/><line class="cls-6" x1="385.79" y1="286.42" x2="203.66" y2="286.42"/><path class="cls-2" d="m181.5,56.8h71.79c3.59,0,6.49,2.91,6.49,6.49v36.81c0,3.59-2.91,6.49-6.49,6.49h-12.67l9.07,21.53-23.28-21.53h-44.92c-3.59,0-6.49-2.91-6.49-6.49v-36.81c0-3.59,2.91-6.49,6.49-6.49Z"/><path class="cls-3" d="m184.51,54.65h71.79c3.59,0,6.49,2.91,6.49,6.49v36.81c0,3.59-2.91,6.49-6.49,6.49h-12.67l9.07,21.53-23.28-21.53h-44.92c-3.59,0-6.49-2.91-6.49-6.49v-36.81c0-3.59,2.91-6.49,6.49-6.49Z"/><circle class="cls-7" cx="236.63" cy="79.55" r="3.36"/><circle class="cls-7" cx="220.41" cy="79.55" r="3.36"/><circle class="cls-7" cx="204.19" cy="79.55" r="3.36"/><path class="cls-2" d="m144.3,117h273.59c4.73,0,8.56,3.83,8.56,8.56v187.14H135.75V125.55c0-4.73,3.83-8.56,8.56-8.56Zm5.08,195.57h264.53V126.09H149.38v186.48Z"/><polygon class="cls-3" points="292.74 312.62 266.65 312.62 265.77 263.62 276.32 198.98 306.51 199.38 292.21 269.71 292.74 312.62"/><path class="cls-2" d="m273.58,266.53l-6.84,46.09h-36.29c1.31-5.27,12.36-49.83,12.36-52.56,0-2.9,7.8-51.29,9.81-54.19,2.01-2.9,28.99-14.05,28.99-14.05l-2.68,15.61-5.35,59.09Z"/><path class="cls-4" d="m256.18,227.51c-2.25,10.28-4.69,20.7-5.81,31.17-1.21,11.26.68,23.28,1.31,34.56.25,4.49.07,8.78-.22,13.28"/><ellipse class="cls-1" cx="316.19" cy="166.54" rx="13.72" ry="13.36"/><path class="cls-2" d="m343.88,312.62h-51.22c-.56-5.98-3.58-38.11-4.59-44.98-1.11-7.58,11.15-56.64,11.15-56.64l9.37-21.41,37.91,15.16-14.49,77.82,11.88,30.04Z"/><path class="cls-3" d="m306.98,183.46s1.6,0,3.21,1.96c.97,1.19,2.91,9.79,3.21,11.58.53,3.21,1.25,26.72,1.25,26.72,0,0-17.46-8.91-18.17-8.91s-8.55,3.38-8.55,3.38c0,0-2.49-.36-3.21-.89-.71-.53-4.99-6.41-4.99-6.41l-15.14,9.62s11.4-26.55,14.07-30.82c2.67-4.28,4.63-5.52,6.41-6.06,1.78-.53,21.91-.18,21.91-.18Z"/><path class="cls-3" d="m307.52,159.95s-1.96,15.14-1.25,20.13c.71,4.99,2.32,2.49.71,8.2-1.6,5.7-13.72,24.41-16.21,27.61-2.49,3.21-4.99,2.14-5.88-1.25s-1.6-24.05-1.6-24.05l-2.49-9.09,26.72-21.56Z"/><polygon class="cls-2" points="297.63 177.74 284.26 193.82 283.29 190.59 280.8 181.5 297.63 177.74"/><path class="cls-3" d="m265.58,144.22s.34,14.43.18,17.5c-.16,3.07.16,8.57,2.43,13.27,2.26,4.69,9.22,9.22,12.94,9.22s11.16-2.75,16.5-6.47c4.63-3.23,9.22-9.22,10.52-11,1.29-1.78,3.24-9.22,3.24-9.22l1.13-6.15,1.13-5.02s-10.19.32-15.69-5.34c-5.5-5.66-17.15-16.83-17.15-16.83l-13.59,13.75-1.64,6.28Z"/><path class="cls-5" d="m278.71,150.08s.16,4.69-.97,6.63-4.21,4.37-3.4,5.66c.81,1.29,5.5,1.46,5.99,1.13"/><path class="cls-5" d="m289.06,166.74s-2.75,5.18-9.71,4.37"/><path class="cls-5" d="m283.83,145.98c5.43-2.1,7.88.05,9.91,1.7"/><path class="cls-5" d="m275.71,146.45s-5.02-3.19-8.04.98"/><path class="cls-7" d="m287.77,154.12c0,1.52.69,2.75,1.54,2.75s1.54-1.23,1.54-2.75-.69-2.75-1.54-2.75-1.54,1.23-1.54,2.75Z"/><path class="cls-7" d="m270.78,153.64c0,1.52.69,2.75,1.54,2.75s1.54-1.23,1.54-2.75-.69-2.75-1.54-2.75-1.54,1.23-1.54,2.75Z"/><path class="cls-1" d="m281.31,128.37s2.34,7.28,8.71,13.26,15.99,7.8,15.99,7.8c0,0-.52,2.47.13,3.38.65.91,2.08,1.82,2.08,1.82,0,0,3.77.65,7.28-3.12,3.51-3.77,3.12-21.06-3.51-29.63-6.63-8.58-27.03-9.88-32.88-7.41-5.85,2.47-3.64,3.64-3.64,3.64,0,0-9.1,4.03-14.69,10.53-5.59,6.5,4.81,15.6,4.81,15.6l15.73-15.86Z"/><path class="cls-2" d="m314.14,150.89s1.78-23.78-12.13-35.27l-6.15-1.62s14.08,13.27,15.21,37.37l3.07-.49Z"/><path class="cls-2" d="m305.52,155.99c-2.13,4.13-1.12,8.89,2.26,10.63,3.38,1.74,7.84-.2,9.97-4.33,2.13-4.13,1.12-8.89-2.26-10.63-3.38-1.74-7.84.2-9.97,4.33Z"/><path class="cls-5" d="m308.96,162.21s-9.55,12.46-21.19,16.83"/><path class="cls-2" d="m284.91,179.86c.46,1.1,1.98,1.52,3.39.93,1.41-.59,2.18-1.97,1.71-3.07-.46-1.1-1.98-1.52-3.39-.93-1.41.59-2.18,1.97-1.71,3.07Z"/><path class="cls-3" d="m294.9,261.89s-5.98-4.25-6.46-4.72c-.47-.47-4.41-5.83-5.51-7.4-1.1-1.57-3.15-2.99-4.57-4.25-1.42-1.26-3.78-4.09-4.88-5.98-1.1-1.89-2.52-3.62-2.99-1.57-.47,2.05.79,4.41,1.26,5.83s2.05,3.94,2.05,3.94c0,0-5.83-3.62-9.29-4.25-3.46-.63-7.87-.63-8.03.47-.16,1.1.94,1.42,2.52,2.05,1.57.63,5.83,2.2,7.4,2.83,1.57.63,5.83,3.78,5.83,3.78,0,0-8.03-1.89-9.76-2.36-1.73-.47-5.98-.63-6.93-.63s-1.73,1.73-.47,2.68c1.26.94,3.78,2.2,3.78,2.2,0,0,.94,1.57,2.36,3.15,1.42,1.57,2.99,3.62,4.57,5.98,1.57,2.36,3.94,4.09,6.46,5.35,2.52,1.26,13.23,2.36,13.23,2.36l7.24,3.62,2.2-13.07Z"/><path class="cls-5" d="m258.84,254.49s9.76,2.36,11.97,3.94"/><path class="cls-5" d="m264.04,260.94s5.51,2.68,6.14,2.83"/><path class="cls-2" d="m332.44,199.86s16.28,4.01,16.72,6.47c.45,2.45,12.04,77.6,12.71,80.94.67,3.34,1.56,8.92-.67,9.37-2.23.45-68.9-20.29-68.9-20.29l3.22-16.03,34.91,3.99-5.13-31.44"/><line class="cls-4" x1="332.51" y1="264.57" x2="348.28" y2="265.39"/><polyline class="cls-4" points="301.81 261.92 332.51 264.57 325.85 238.91"/></svg>