<?xml version="1.0" encoding="UTF-8"?><svg id="Speech_Bubble" xmlns="http://www.w3.org/2000/svg" viewBox="0 0 500 500"><defs><style>.cls-1,.cls-2{stroke-width:0px;}.cls-2{opacity:.7;}</style></defs><path class="cls-1" d="m46.52,115.3c1.66-2.76,3.38-5.47,5.19-8.12,24-35.26,63.95-59.4,102.77-70.33,17.01-4.8,34.47-7.31,51.9-7.95,114.34-4.15,156.35,90.12,193.19,114.43,36.84,24.31,93.37,65.83,86.28,153.05-5.38,66.32-43.11,129.73-112.01,158.58-7.59,3.19-15.56,5.96-23.91,8.25-15.53,4.27-32.36,6.96-50.5,7.76-52.09,2.32-94.39-10.24-135.76-41.86-9.62-7.35-19.18-15.64-31.66-16.55-9.07-.66-17.67,2.6-8.19,11.37,11.14,10.3-1.71,30.57-30.01,16.49-47.25-23.52-66.69-74.26-75.85-125.85-11.24-63.33-5.79-142.09,28.56-199.27Z"/><path class="cls-2" d="m46.52,115.3c1.66-2.76,3.38-5.47,5.19-8.12,24-35.26,63.95-59.4,102.77-70.33,17.01-4.8,34.47-7.31,51.9-7.95,114.34-4.15,156.35,90.12,193.19,114.43,36.84,24.31,93.37,65.83,86.28,153.05-5.38,66.32-43.11,129.73-112.01,158.58-7.59,3.19-15.56,5.96-23.91,8.25-15.53,4.27-32.36,6.96-50.5,7.76-52.09,2.32-94.39-10.24-135.76-41.86-9.62-7.35-19.18-15.64-31.66-16.55-9.07-.66-17.67,2.6-8.19,11.37,11.14,10.3-1.71,30.57-30.01,16.49-47.25-23.52-66.69-74.26-75.85-125.85-11.24-63.33-5.79-142.09,28.56-199.27Z"/></svg>